<svg width="64" height="65" viewBox="0 0 64 65" fill="none" xmlns="http://www.w3.org/2000/svg">
<path fill-rule="evenodd" clip-rule="evenodd" d="M0 32.5C0 14.8262 14.3262 0.5 32 0.5C49.6738 0.5 64 14.8262 64 32.5C64 50.1738 49.6738 64.5 32 64.5C14.3262 64.5 0 50.1738 0 32.5ZM43.8482 26.5464C44.0451 26.284 44.1876 25.9848 44.2673 25.6666C44.347 25.3484 44.3622 25.0174 44.3121 24.6932C44.2621 24.3689 44.1477 24.058 43.9757 23.7786C43.8038 23.4992 43.5777 23.257 43.3108 23.0662C43.0439 22.8755 42.7415 22.74 42.4215 22.6677C42.1015 22.5955 41.7703 22.5879 41.4473 22.6455C41.1243 22.7031 40.8161 22.8247 40.5408 23.0031C40.2655 23.1815 40.0286 23.4131 39.8441 23.6844L29.2234 38.5521L23.8933 33.2221C23.4267 32.7872 22.8095 32.5505 22.1718 32.5618C21.5341 32.573 20.9257 32.8314 20.4747 33.2824C20.0237 33.7334 19.7653 34.3418 19.7541 34.9795C19.7428 35.6172 19.9796 36.2344 20.4144 36.701L27.799 44.0856C28.0517 44.3381 28.3563 44.5326 28.6917 44.6556C29.027 44.7785 29.3852 44.827 29.7412 44.7976C30.0972 44.7683 30.4425 44.6618 30.7532 44.4856C31.064 44.3093 31.3326 44.0676 31.5405 43.7771L43.8482 26.5464Z" fill="#B4DADA"/>
</svg>
