<svg width="158" height="311" viewBox="0 0 158 311" fill="none" xmlns="http://www.w3.org/2000/svg">
<g filter="url(#filter0_d_78_392)">
<path d="M106.638 131.214C77.6666 152.088 58.2346 184.104 48.3419 227.262C38.4493 270.421 7.35803 292 -44.9317 292C-97.2215 292 -134.672 274.088 -157.284 238.264C-179.896 202.439 -204.451 170.423 -230.949 142.215C-257.447 114.007 -262.924 82.5548 -247.378 47.8589C-231.832 13.1629 -206.041 -16.0325 -170.003 -39.7273C-133.966 -63.4221 -94.3951 -69.7689 -51.2913 -58.7677C-8.18756 -47.7666 33.3263 -35.7781 73.2502 -22.8024C113.174 -9.82669 135.963 13.8681 141.616 48.282C147.269 82.6959 135.609 110.34 106.638 131.214Z" fill="#B4DADA"/>
</g>
<defs>
<filter id="filter0_d_78_392" x="-270.2" y="-74.2" width="427.4" height="384.4" filterUnits="userSpaceOnUse" color-interpolation-filters="sRGB">
<feFlood flood-opacity="0" result="BackgroundImageFix"/>
<feColorMatrix in="SourceAlpha" type="matrix" values="0 0 0 0 0 0 0 0 0 0 0 0 0 0 0 0 0 0 127 0" result="hardAlpha"/>
<feOffset dy="4"/>
<feGaussianBlur stdDeviation="7.1"/>
<feComposite in2="hardAlpha" operator="out"/>
<feColorMatrix type="matrix" values="0 0 0 0 0.705882 0 0 0 0 0.854902 0 0 0 0 0.854902 0 0 0 0.32 0"/>
<feBlend mode="normal" in2="BackgroundImageFix" result="effect1_dropShadow_78_392"/>
<feBlend mode="normal" in="SourceGraphic" in2="effect1_dropShadow_78_392" result="shape"/>
</filter>
</defs>
</svg>
