<svg width="143" height="292" viewBox="0 0 143 292" fill="none" xmlns="http://www.w3.org/2000/svg">
<path d="M106.638 131.214C77.6666 152.088 58.2346 184.104 48.3419 227.262C38.4493 270.421 7.35803 292 -44.9317 292C-97.2215 292 -134.672 274.088 -157.284 238.264C-179.896 202.439 -204.451 170.423 -230.949 142.215C-257.447 114.007 -262.924 82.5548 -247.378 47.8589C-231.832 13.1629 -206.041 -16.0325 -170.003 -39.7273C-133.966 -63.4221 -94.3951 -69.7689 -51.2913 -58.7677C-8.18756 -47.7666 33.3263 -35.7781 73.2502 -22.8024C113.174 -9.82669 135.963 13.8681 141.616 48.282C147.269 82.6959 135.609 110.34 106.638 131.214Z" fill="#B4DADA"/>
</svg>
